<?xml version="1.0" encoding="UTF-8"?>
<svg width="240" height="240" version="1.1" viewBox="0 0 63.5 63.5" xmlns="http://www.w3.org/2000/svg">
 <rect x="0" y="0" width="63.5" height="63.5"/>
 <path d="m11.218 6.4856a1.3229 1.3229 0 0 0-1.8379 0.35937 1.3229 1.3229 0 0 0 0.35937 1.8359l42.543 28.65a1.3229 1.3229 0 0 0 1.8359-0.35742 1.3229 1.3229 0 0 0-0.35743-1.8359z" style="color:#000000;fill:#fff;stroke-linecap:round;stroke-linejoin:round"/>
 <path d="m26.294 19.829 25.989 17.502a1.3229 1.3229 0 0 0 1.8361-0.35708 1.3229 1.3229 0 0 0-0.3576-1.8361l-22.731-15.309z" style="fill:#f0f"/>
 <path d="m6.341 19.829h50.818v7.336h-50.818z" style="fill-opacity:.4;fill:#f0f;stroke-linecap:square;stroke-opacity:.8;stroke-width:2.6458;stroke:#f0f"/>
</svg>
